<svg xmlns="http://www.w3.org/2000/svg" width="22" height="22" fill="none" viewBox="0 0 22 22"><path fill="#030A1A" d="M11 3.33c1.32 0 2.4 1.05 2.4 2.35S12.32 8.03 11 8.03a2.38 2.38 0 0 1-2.4-2.35c0-1.3 1.08-2.35 2.4-2.35Zm0 8.03c3.2 0 5.8-2.55 5.8-5.68S14.2 0 11 0a5.74 5.74 0 0 0-5.79 5.68c0 3.13 2.6 5.68 5.79 5.68Zm2.34 4.63c1.18-.27 2.32-.73 3.37-1.37.79-.49 1.03-1.52.53-2.3a1.71 1.71 0 0 0-2.34-.52 7.49 7.49 0 0 1-7.8 0c-.8-.49-1.84-.25-2.34.53-.5.77-.26 1.8.53 2.29 1.05.64 2.19 1.1 3.37 1.37l-3.24 3.17c-.66.65-.66 1.7 0 2.35a1.72 1.72 0 0 0 2.4 0L11 18.4l3.18 3.12c.67.65 1.74.65 2.4 0 .66-.65.66-1.7 0-2.35l-3.24-3.17Z"/></svg>
